<?xml version="1.0" encoding="UTF-8" standalone="no"?>
<!-- Created with Inkscape (http://www.inkscape.org/) -->

<svg
   version="1.1"
   id="svg1"
   width="600"
   height="600"
   viewBox="0 0 600 600"
   sodipodi:docname="logo.svg"
   inkscape:version="1.4.2 (f4327f4, 2025-05-13)"
   xmlns:inkscape="http://www.inkscape.org/namespaces/inkscape"
   xmlns:sodipodi="http://sodipodi.sourceforge.net/DTD/sodipodi-0.dtd"
   xmlns="http://www.w3.org/2000/svg"
   xmlns:svg="http://www.w3.org/2000/svg">
  <defs
     id="defs1" />
  <sodipodi:namedview
     id="namedview1"
     pagecolor="#ffffff"
     bordercolor="#000000"
     borderopacity="0.25"
     inkscape:showpageshadow="2"
     inkscape:pageopacity="0.0"
     inkscape:pagecheckerboard="0"
     inkscape:deskcolor="#d1d1d1"
     inkscape:zoom="0.38574219"
     inkscape:cx="1666.9165"
     inkscape:cy="352.56709"
     inkscape:window-width="1920"
     inkscape:window-height="992"
     inkscape:window-x="-8"
     inkscape:window-y="-8"
     inkscape:window-maximized="1"
     inkscape:current-layer="g1" />
  <g
     inkscape:groupmode="layer"
     inkscape:label="Image"
     id="g1">
    <circle
       style="fill:#36505f;fill-opacity:1;stroke:none;stroke-width:17.533;stroke-dasharray:none;stroke-opacity:1"
       id="path41"
       cx="301.54614"
       cy="299.25473"
       r="280" />
    <path
       id="path13"
       style="display:inline;fill:#f0a346;fill-opacity:1;stroke:#000000;stroke-width:17.533;stroke-dasharray:none;stroke-opacity:1"
       d="m 295.13025,186.06039 43.07802,-32.07938 m -138.39959,121.90163 33.91248,-37.5787 v 0 m -104.48711,132.90027 25.6635,-39.4118 v 0 m -0.254,43.72341 -42.77468,-5.83292 c -25.486719,37.24843 -44.272143,79.8579 -52.496201,130.91646 1.002404,24.67969 4.361005,47.78858 20.739241,62.21772 5.327067,4.39445 12.191635,7.2514 22.68354,6.48101 30.82315,-1.6376 58.85073,-25.6397 88.14177,-39.53417 C 325.00239,438.71564 431.8374,323.70483 522.76507,194.69556 538.4716,166.92832 553.25856,144.39476 558.40726,108.07913 555.36992,88.904002 537.82042,75.8021 518.91578,71.896653 497.56184,67.016784 477.19147,70.694375 456.01064,76.093027 396.66209,100.83415 350.11571,124.15281 321.85368,145.43987 l 64.27322,39.53418 c 4.12863,4.35172 1.54689,12.31205 -3.3517,12.31392 -48.87195,4.53216 -77.76075,-6.92221 -110.17722,-15.55443 l -51.8481,51.2 77.12405,40.83038 c 4.22254,5.57384 2.36972,9.512 -1.2962,12.96202 -14.56733,6.11211 -26.89592,4.70603 -38.35255,2.86086 -22.09024,-1.51329 -49.22094,-10.8165 -76.36138,-19.06339 l -42.12658,55.08861 c 26.39481,13.07442 60.22966,24.02311 75.82785,40.18228 1.16931,3.50365 2.22913,5.52362 1.52197,10.10116 -4.53721,9.07243 -16.44718,8.65601 -27.44602,4.80517 z" />
    <circle
       id="path14"
       style="fill:#000000;stroke:#000000"
       cx="162.22998"
       cy="414.2822"
       r="8.0900774" />
    <circle
       id="path15"
       style="fill:#000000;stroke:#000000"
       cx="107.23678"
       cy="449.11124"
       r="8.0900774" />
    <circle
       id="path16"
       style="fill:#000000;stroke:#000000"
       cx="107.23678"
       cy="449.11124"
       r="8.0900774" />
    <circle
       id="path17"
       style="fill:#000000;stroke:#000000"
       cx="186.06038"
       cy="316.211"
       r="8.0900774" />
    <circle
       id="path18"
       style="fill:#000000;stroke:#000000"
       cx="224.55562"
       cy="309.7951"
       r="8.0900774" />
    <circle
       id="path19"
       style="fill:#000000;stroke:#000000"
       cx="268.55023"
       cy="227.3053"
       r="8.0900774" />
    <circle
       id="path20"
       style="fill:#000000;stroke:#000000"
       cx="307.04547"
       cy="217.22321"
       r="8.0900774" />
    <circle
       id="path21"
       style="fill:#000000;stroke:#000000"
       cx="371.20422"
       cy="142.98236"
       r="8.0900774" />
    <circle
       id="path22"
       style="fill:#000000;stroke:#000000"
       cx="410.61603"
       cy="165.89621"
       r="8.0900774" />
    <circle
       id="path23"
       style="fill:#000000;stroke:#000000"
       cx="416.11533"
       cy="129.23405"
       r="8.0900774" />
    <path
       style="fill:#cf7a15;fill-opacity:1;stroke:none;stroke-width:17.533;stroke-dasharray:none;stroke-opacity:1"
       d="m 464.43595,76.741128 c 20.30717,-3.744674 63.946,-5.75679 84.25317,7.777215 8.27359,13.82616 12.76926,27.652327 3.88861,41.478487 -42.0913,123.01404 -149.19057,211.35715 -239.79747,308.4962 l -137.39747,101.1038 -63.51392,31.10886 -31.108858,-5.18481 C 95.718089,555.21251 298.08916,484.28205 505.91443,164.88291 534.56578,94.475243 507.42363,77.269462 464.43595,76.741128 Z"
       id="path39"
       sodipodi:nodetypes="ccccccccc" />
    <circle
       id="path24"
       style="fill:#000000;stroke:#000000"
       cx="317.12756"
       cy="247.46947"
       r="8.0900774" />
    <circle
       id="path25"
       style="fill:#000000;stroke:#000000"
       cx="239.22047"
       cy="340.95792"
       r="8.0900774" />
    <circle
       id="path26"
       style="fill:#000000;stroke:#000000"
       cx="121.90163"
       cy="407.86633"
       r="8.0900774" />
    <path
       id="path30"
       style="display:none;fill:#cf7a15;fill-opacity:1;stroke:none;stroke-width:16.0699;stroke-dasharray:none;stroke-opacity:1"
       d="m 501.59121,61.59679 c -10.17176,-0.303964 -21.06742,0.697436 -32.31641,3.017578 -6.55336,1.351652 -13.97752,3.188464 -16.49805,4.082031 -9.39081,3.3292 -41.9886,17.978459 -64.42382,28.951172 -34.13547,16.695119 -53.18471,27.769199 -72.90821,42.384769 l -8.09961,6.00195 6.26563,3.92188 c 3.44647,2.15644 6.8526,4.2766 7.56836,4.71289 1.21125,0.73832 -3.37555,4.44447 -26.96485,21.78906 l -2.75,2.02344 -10.52734,-2.95703 -10.52734,-2.95703 -31.17579,30.64648 c -17.14698,16.85535 -31.29425,30.9656 -31.4375,31.35742 -0.14327,0.39181 2.48201,2.15928 5.83204,3.92774 l 6.08984,3.21484 -9.84961,10.89844 c -5.41735,5.99344 -10.51605,11.60554 -11.33008,12.4707 -1.39503,1.48261 -1.97785,1.41506 -10.16406,-1.15429 -4.77693,-1.49931 -8.99472,-2.61834 -9.37305,-2.48829 -0.37832,0.13004 -12.20392,15.28965 -26.27734,33.68946 l -25.58789,33.45508 7.67187,3.66601 7.67383,3.66602 -8.86133,13.60742 -8.86132,13.60937 -3.26172,-0.51757 c -1.7938,-0.28432 -5.58676,-0.78773 -8.42774,-1.11914 l -5.16601,-0.60352 -4.54492,6.75976 c -25.262679,37.56647 -42.07802,78.46649 -50.625,123.13086 -1.737553,9.08001 -1.82735,11.11715 -0.923828,21.08008 2.346953,25.87932 7.600985,40.51662 18.941406,52.76563 5.499775,5.94042 10.831195,9.52803 17.041016,11.46875 5.758603,1.7997 19.093576,1.57086 28.406246,-0.48828 11.91276,-2.63405 25.90933,-8.95524 48.15625,-21.75 10.92989,-6.28604 22.34646,-12.68568 25.37109,-14.22071 8.72779,-4.42942 40.91117,-27.3474 66.45117,-47.32031 86.50626,-67.65005 166.78479,-150.41672 239.99414,-247.43359 30.31441,-40.1726 42.68059,-59.36684 55.02344,-85.40625 9.65415,-20.36713 16.69087,-46.91009 14.74219,-55.60548 -3.6035,-16.079559 -18.23773,-31.151546 -36.36914,-37.457028 -8.35623,-2.906007 -17.80481,-4.516348 -27.97656,-4.820312 z m -4.36133,16.874999 c 16.10486,-0.05207 23.00043,1.22381 32.88476,6.089844 10.86457,5.348616 19.38465,15.969037 19.33985,24.109377 -0.0278,5.05544 -2.97416,17.68742 -6.39844,27.4375 -6.32207,18.00106 -21.87335,46.69209 -35.86914,66.17774 -85.91236,119.61157 -178.78073,216.15173 -281.25586,292.37109 -22.83523,16.98448 -38.09959,27.54022 -44.45312,30.74219 -3.02463,1.52432 -14.0994,7.73348 -24.61133,13.79687 -21.40034,12.34394 -32.1262,17.30503 -43.08985,19.9336 -8.88455,2.1301 -19.023633,2.27707 -23.496085,0.33984 -12.065519,-5.22617 -19.700641,-22.29344 -21.896484,-48.94922 -0.723076,-8.77757 -0.564488,-10.75166 1.806641,-22.45508 6.744837,-33.29117 19.367,-65.9305 36.955078,-95.56054 8.69796,-14.65317 8.09373,-14.13278 15.21484,-13.07617 3.27668,0.48619 19.15577,2.75754 35.28711,5.04687 16.13135,2.28933 31.59852,4.77282 34.37109,5.51758 11.40477,3.0635 22.4168,1.02709 28.53125,-5.27344 4.90529,-5.05457 5.95742,-9.44726 4.10742,-17.13867 -1.24758,-5.18683 -2.03395,-6.53482 -5.8125,-9.94336 -9.34967,-8.43414 -23.03713,-16.03696 -50.6582,-28.13867 -7.81362,-3.42341 -14.49297,-6.47304 -14.84375,-6.77735 -0.57401,-0.49797 26.36915,-36.63123 30.38281,-40.74609 1.61055,-1.65116 2.03417,-1.58303 15.28516,2.45508 28.41246,8.65839 41.32508,11.56749 61.6875,13.9043 14.52111,1.66645 20.33638,1.37858 31.52539,-1.56055 8.06656,-2.11894 11.69405,-4.66216 14.50391,-10.16992 2.45522,-4.81266 1.95542,-11.15118 -1.25977,-15.96875 -2.01137,-3.01376 -6.66492,-5.75369 -36.11133,-21.25977 -18.59139,-9.78996 -33.98988,-17.95181 -34.21875,-18.13672 -0.84479,-0.68256 38.95279,-39.67968 40.49414,-39.67968 0.87881,0 7.29872,1.61056 14.26758,3.58007 31.8207,8.99303 48.45324,11.38862 75.80469,10.91602 21.67826,-0.37458 23.90423,-0.92094 27.95508,-6.87109 3.33965,-4.9055 3.28033,-13.35938 -0.125,-17.7793 -1.59959,-2.07617 -11.45336,-8.66891 -29.14454,-19.50391 -14.69983,-9.00295 -26.5844,-16.79757 -26.41015,-17.32031 0.98253,-2.94758 46.61761,-27.62745 75.84375,-41.01758 47.71688,-21.861785 58.18332,-25.010251 83.40625,-25.091801 z M 336.76113,165.56359 c 1.4812,0.0106 8.11687,3.63431 20.23047,11.04492 10.55833,6.45916 19.20891,12.05357 19.22461,12.43164 0.0157,0.37808 -7.08545,0.6437 -15.78125,0.5918 -16.24713,-0.0969 -29.78939,-1.48458 -41.67774,-4.27344 l -6.77148,-1.58984 11.64258,-8.70703 c 6.40408,-4.78899 12.21098,-9.04322 12.90429,-9.45313 0.053,-0.0313 0.12977,-0.0456 0.22852,-0.0449 z m -100.29102,94.6582 10.51953,5.5918 c 5.78491,3.0764 10.69955,5.77572 10.92188,5.99805 0.22229,0.22233 0.23151,0.56408 0.0215,0.75976 -0.35241,0.32831 -26.60097,-4.72988 -27.09179,-5.2207 l -0.002,-0.002 v -0.002 h -0.002 c -0.0772,-0.16502 1.12597,-1.79897 2.70898,-3.66992 z m -77.91406,83.28711 c 0.261,-0.008 0.51541,0.0555 0.79102,0.16211 13.65334,5.28301 36.78951,16.99077 43.16406,21.84375 5.18798,3.94964 6.51852,5.77639 5.7207,7.85547 -0.72468,1.8885 -8.33699,1.95403 -14.38086,0.12305 -3.42874,-1.03873 -46.94979,-7.78906 -50.21875,-7.78906 -0.56053,0 2.30364,-5.12791 6.36524,-11.39649 5.59177,-8.63022 7.1492,-10.75537 8.55859,-10.79883 z" />
    <path
       style="fill:#cf7a15;fill-opacity:1;stroke:none;stroke-width:5.68158;stroke-dasharray:none;stroke-opacity:1"
       d="m 198.22836,373.84038 c -0.80203,-0.1704 -2.65652,-0.6684 -4.12109,-1.10667 -2.34659,-0.7022 -27.33152,-4.59283 -44.64853,-6.95261 -2.85164,-0.3886 -5.23363,-0.75139 -5.2933,-0.80622 -0.10092,-0.0927 13.01422,-20.42507 13.53472,-20.98283 0.31929,-0.34215 16.18699,6.69109 25.7839,11.42852 8.93165,4.40904 14.58378,7.69327 19.15364,11.12942 4.80947,3.61631 5.31375,4.11253 5.5216,5.43331 0.17643,1.12105 0.13174,1.18694 -1.15368,1.70127 -1.50084,0.60052 -6.2845,0.68544 -8.77726,0.15581 z"
       id="path32" />
    <path
       style="fill:#cf7a15;fill-opacity:1;stroke:none;stroke-width:5.68158;stroke-dasharray:none;stroke-opacity:1"
       d="m 268.54735,281.99092 c -0.6238,-0.0761 -3.24861,-0.42053 -5.83291,-0.76536 -2.58431,-0.34484 -6.22988,-0.79011 -8.10127,-0.98949 -6.16682,-0.65701 -14.01447,-2.13836 -22.52152,-4.25122 -5.62594,-1.3973 -15.5127,-4.18762 -15.80191,-4.45974 -0.28417,-0.26739 18.10129,-20.76879 18.62525,-20.76879 0.31957,0 52.25811,27.3452 54.0313,28.44702 l 0.79387,0.4933 -0.79387,0.30185 c -0.43664,0.16602 -2.32502,0.66321 -4.19641,1.10486 -2.80344,0.6616 -4.42955,0.82262 -9.23544,0.91448 -3.20811,0.0613 -6.34329,0.0492 -6.96709,-0.0269 z"
       id="path33" />
    <path
       style="fill:#cf7a15;fill-opacity:1;stroke:none;stroke-width:5.68158;stroke-dasharray:none;stroke-opacity:1"
       d="m 354.74482,189.31008 c -8.07959,-0.31081 -17.54315,-1.27533 -25.43798,-2.5926 -4.59206,-0.7662 -12.86481,-2.41764 -14.83414,-2.96125 -0.84238,-0.23253 -0.14822,-0.80798 10.84916,-8.99379 6.46202,-4.80995 12.00089,-8.74536 12.30861,-8.74536 0.30772,0 8.86244,5.1038 19.01048,11.34177 16.75911,10.30179 18.3626,11.36079 17.4871,11.54916 -1.16959,0.25163 -15.54319,0.54979 -19.38323,0.40207 z"
       id="path34" />
    <path
       id="path40"
       style="display:inline;fill:none;fill-opacity:1;stroke:#000000;stroke-width:17.533;stroke-dasharray:none;stroke-opacity:1"
       d="m 295.13025,186.06039 43.07802,-32.07938 m -138.39959,121.90163 33.91248,-37.5787 v 0 m -104.48711,132.90027 25.6635,-39.4118 v 0 m -0.254,43.72341 -42.77468,-5.83292 c -25.486719,37.24843 -44.272143,79.8579 -52.496201,130.91646 1.002404,24.67969 4.361005,47.78858 20.739241,62.21772 5.327067,4.39445 12.191635,7.2514 22.68354,6.48101 30.82315,-1.6376 58.85073,-25.6397 88.14177,-39.53417 C 325.00239,438.71564 431.8374,323.70483 522.76507,194.69556 538.4716,166.92832 558.46127,147.51638 558.40726,108.07913 555.36992,88.904002 537.82042,75.8021 518.91578,71.896653 497.56184,67.016784 477.19147,70.694375 456.01064,76.093027 396.66209,100.83415 350.11571,124.15281 321.85368,145.43987 l 64.27322,39.53418 c 4.12863,4.35172 1.54689,12.31205 -3.3517,12.31392 -48.87195,4.53216 -77.76075,-6.92221 -110.17722,-15.55443 l -51.8481,51.2 77.12405,40.83038 c 4.22254,5.57384 2.36972,9.512 -1.2962,12.96202 -14.56733,6.11211 -26.89592,4.70603 -38.35255,2.86086 -22.09024,-1.51329 -49.22094,-10.8165 -76.36138,-19.06339 l -42.12658,55.08861 c 26.39481,13.07442 60.22966,24.02311 75.82785,40.18228 1.16931,3.50365 2.22913,5.52362 1.52197,10.10116 -4.53721,9.07243 -16.44718,8.65601 -27.44602,4.80517 z"
       sodipodi:nodetypes="cccccccccccccccccccccccccccccccc" />
  </g>
</svg>
